<svg width="61" height="16" viewBox="0 0 61 16" fill="none" xmlns="http://www.w3.org/2000/svg">
<g clip-path="url(#clip0_170_476)">
<path fill-rule="evenodd" clip-rule="evenodd" d="M9.44442 0.657119L15.0287 6.21298C15.4515 6.63368 15.6891 7.20425 15.6891 7.79919C15.6891 8.39412 15.4515 8.9647 15.0287 9.3854L9.43333 14.9523C9.01048 15.373 8.43699 15.6093 7.83901 15.6093C7.24103 15.6093 6.66755 15.373 6.2447 14.9523L0.659869 9.39643C0.237048 8.97573 -0.000488281 8.40516 -0.000488281 7.81022C-0.000488281 7.21529 0.237048 6.64471 0.659869 6.22402L6.25523 0.657119C6.67808 0.23645 7.25157 0.00012207 7.84955 0.00012207C8.44753 0.00012207 9.02157 0.23645 9.44442 0.657119ZM7.47246 2.06622L7.44972 2.08774L2.09836 7.41188C1.99645 7.51327 1.93742 7.64964 1.9334 7.79298C1.92938 7.93631 1.98067 8.07574 2.07673 8.18264L2.09836 8.20471L7.44196 13.5222C7.65491 13.7335 7.9954 13.7407 8.21721 13.5432L8.2394 13.5222L13.5908 8.19753C13.6965 8.09231 13.7559 7.94962 13.7559 7.80084C13.7559 7.65206 13.6965 7.50938 13.5908 7.40415L8.24716 2.08774C8.14525 1.98635 8.00818 1.92762 7.86411 1.92362C7.72004 1.91962 7.5799 1.97064 7.47246 2.06622ZM7.9466 4.4105L11.2567 7.70319C11.3116 7.75836 11.3116 7.84664 11.2567 7.90181L7.94216 11.1995C7.91565 11.2257 7.87976 11.2405 7.84234 11.2405C7.80492 11.2405 7.76903 11.2257 7.74252 11.1995L4.433 7.90567C4.4198 7.89274 4.40932 7.87732 4.40217 7.86032C4.39502 7.84331 4.39133 7.82507 4.39133 7.80664C4.39133 7.78821 4.39502 7.76996 4.40217 7.75296C4.40932 7.73596 4.4198 7.72054 4.433 7.7076L7.74696 4.4105C7.80241 4.35533 7.89114 4.35533 7.9466 4.4105Z" fill="white"/>
<path d="M22.9343 1.93323L18.458 13.6899H20.5481L21.5518 11.0047H26.6536L27.674 13.6899H29.7974L25.3205 1.93323H22.9343ZM24.0866 4.25819L25.9627 9.17074H22.2433L24.0866 4.25819ZM37.5815 12.0198H33.0231L37.5322 6.58371V5.0935H30.6037V6.76357H35.1787L30.5371 12.2163V13.6894H37.5815V12.0198ZM39.5568 11.5283C39.5568 13.2805 40.4457 13.7881 42.0911 13.7881C42.6013 13.7881 43.0948 13.7385 43.4575 13.6734V12.0198C43.1613 12.0524 42.98 12.069 42.6512 12.069C41.943 12.069 41.4988 11.9867 41.4988 11.2171V6.76412H43.3094V5.0935H41.4988V2.57212H39.5568V5.0935H38.3557V6.76357H39.5568V11.5283ZM48.4256 13.8703C50.1536 13.8703 51.52 12.9694 52.1289 11.4632L50.4336 10.8243C50.1702 11.7087 49.3966 12.1997 48.4262 12.1997C47.1585 12.1997 46.2696 11.2993 46.1215 9.82564H52.1783V9.17074C52.1783 6.81267 50.8451 4.92964 48.3436 4.92964C45.9407 4.92964 44.2288 6.87833 44.2288 9.39971C44.2288 12.0524 45.9574 13.8703 48.4256 13.8703ZM48.3269 6.58371C49.578 6.58371 50.1702 7.40192 50.1869 8.35199H46.2202C46.5163 7.1895 47.306 6.58371 48.3269 6.58371ZM55.0918 9.39971C55.0918 7.64799 56.0135 6.61626 57.3627 6.61626C58.4163 6.61626 59.0579 7.32026 59.3047 8.25378L60.9672 7.35281C60.5064 5.97792 59.2226 4.92964 57.3627 4.92964C54.8944 4.92964 53.1165 6.74702 53.1165 9.39971C53.1165 12.0524 54.8944 13.8698 57.3627 13.8698C59.2393 13.8698 60.5558 12.773 61 11.3815L59.3047 10.5296C59.0579 11.4792 58.4163 12.1672 57.3627 12.1672C56.0135 12.1672 55.0918 11.152 55.0918 9.39971Z" fill="white"/>
</g>
<defs>
<clipPath id="clip0_170_476">
<rect width="61" height="16" fill="white"/>
</clipPath>
</defs>
</svg>
