<svg width="56" height="56" viewBox="0 0 56 56" fill="none" xmlns="http://www.w3.org/2000/svg">
<path d="M28 11.375V17.5M28 11.375C28 10.1636 28.3592 8.97939 29.0323 7.97214C29.7053 6.96488 30.6619 6.17983 31.7811 5.71624C32.9003 5.25265 34.1318 5.13136 35.3199 5.36769C36.5081 5.60403 37.5994 6.18738 38.456 7.04397C39.3126 7.90057 39.896 8.99194 40.1323 10.1801C40.3686 11.3682 40.2474 12.5997 39.7838 13.7189C39.3202 14.8381 38.5351 15.7947 37.5279 16.4678C36.5206 17.1408 35.3364 17.5 34.125 17.5H28M28 11.375C28 10.1636 27.6408 8.97939 26.9678 7.97214C26.2947 6.96488 25.3381 6.17983 24.2189 5.71624C23.0997 5.25265 21.8682 5.13136 20.6801 5.36769C19.4919 5.60403 18.4006 6.18738 17.544 7.04397C16.6874 7.90057 16.104 8.99194 15.8677 10.1801C15.6314 11.3682 15.7527 12.5997 16.2162 13.7189C16.6798 14.8381 17.4649 15.7947 18.4721 16.4678C19.4794 17.1408 20.6636 17.5 21.875 17.5H28" stroke="white" stroke-width="3.5" stroke-miterlimit="10" stroke-linecap="round"/>
<path d="M45.5 17.5H10.5C8.567 17.5 7 19.067 7 21V26.25C7 28.183 8.567 29.75 10.5 29.75H45.5C47.433 29.75 49 28.183 49 26.25V21C49 19.067 47.433 17.5 45.5 17.5Z" stroke="white" stroke-width="3.5" stroke-linecap="round" stroke-linejoin="round"/>
<path d="M45.5 29.75V45.5C45.5 46.8924 44.9469 48.2277 43.9623 49.2123C42.9777 50.1969 41.6424 50.75 40.25 50.75H15.75C14.3576 50.75 13.0223 50.1969 12.0377 49.2123C11.0531 48.2277 10.5 46.8924 10.5 45.5V29.75M28 17.5V50.75" stroke="white" stroke-width="3.5" stroke-linecap="round" stroke-linejoin="round"/>
</svg>
